<svg width="587" height="834" viewBox="0 0 587 834" fill="none" xmlns="http://www.w3.org/2000/svg">
<path d="M-338.52 497.372C-302.583 521.574 -256.6 528.259 -222.329 554.766C-179.431 587.944 -163.748 644.41 -147.307 696.096C-130.865 747.781 -106.575 803.523 -56.8344 825.126C-4.43109 847.884 56.8672 823.579 102.671 789.429C148.475 755.28 187.318 710.924 238.551 685.651C294.583 658.013 359.243 656.144 420.646 644.594C482.043 633.043 547.209 606.442 574.647 550.303C604.595 489.036 576.898 411.468 525.844 366.264C474.784 321.06 405.865 302.106 338.597 290.972C298.57 284.347 254.442 278.088 227.583 247.673C199.936 216.37 200.01 170.224 187.655 130.327C165.744 59.5825 97.7178 5.62558 23.8555 0.418342C-50.0069 -4.7889 -124.935 39.0809 -156.549 106.051C-173.878 142.755 -180.061 186.51 -209.269 214.689C-229.226 233.941 -256.903 242.644 -283.836 249.24C-310.769 255.836 -338.664 261.182 -362.339 275.613C-438.715 322.166 -401.187 455.179 -338.52 497.372Z" fill="white" fill-opacity="0.08"/>
</svg>
